HIERARCHY
ROOT Hips
{
	OFFSET 0.00000 0.00000 0.00000
	CHANNELS 6 Xposition Yposition Zposition Zrotation Yrotation Xrotation 
	JOINT LHipJoint
	{
		OFFSET 0 0 0
		CHANNELS 3 Zrotation Yrotation Xrotation
		JOINT LeftUpLeg
		{
			OFFSET 1.43652 -1.81092 0.91346
			CHANNELS 3 Zrotation Yrotation Xrotation
			JOINT LeftLeg
			{
				OFFSET 2.45984 -6.75837 0.00000
				CHANNELS 3 Zrotation Yrotation Xrotation
				JOINT LeftFoot
				{
					OFFSET 2.63718 -7.24559 0.00000
					CHANNELS 3 Zrotation Yrotation Xrotation
					JOINT LeftToeBase
					{
						OFFSET 0.19690 -0.54098 2.12239
						CHANNELS 3 Zrotation Yrotation Xrotation
						End Site
						{
							OFFSET 0.00000 -0.00000 1.10116
						}
					}
				}
			}
		}
	}
	JOINT RHipJoint
	{
		OFFSET 0 0 0
		CHANNELS 3 Zrotation Yrotation Xrotation
		JOINT RightUpLeg
		{
			OFFSET -1.35116 -1.81092 0.91345
			CHANNELS 3 Zrotation Yrotation Xrotation
			JOINT RightLeg
			{
				OFFSET -2.55576 -7.02189 0.00000
				CHANNELS 3 Zrotation Yrotation Xrotation
				JOINT RightFoot
				{
					OFFSET -2.61938 -7.19669 0.00000
					CHANNELS 3 Zrotation Yrotation Xrotation
					JOINT RightToeBase
					{
						OFFSET -0.32509 -0.89318 2.23646
						CHANNELS 3 Zrotation Yrotation Xrotation
						End Site
						{
							OFFSET -0.00000 -0.00000 1.19625
						}
					}
				}
			}
		}
	}
	JOINT LowerBack
	{
		OFFSET 0 0 0
		CHANNELS 3 Zrotation Yrotation Xrotation
		JOINT Spine
		{
			OFFSET 0.05193 2.08077 -0.11958
			CHANNELS 3 Zrotation Yrotation Xrotation
			JOINT Spine1
			{
				OFFSET 0.04960 2.08447 0.01967
				CHANNELS 3 Zrotation Yrotation Xrotation
				JOINT Neck
				{
					OFFSET 0 0 0
					CHANNELS 3 Zrotation Yrotation Xrotation
					JOINT Neck1
					{
						OFFSET -0.10699 1.82066 0.27584
						CHANNELS 3 Zrotation Yrotation Xrotation
						JOINT Head
						{
							OFFSET 0.14949 1.84747 -0.32279
							CHANNELS 3 Zrotation Yrotation Xrotation
							End Site
							{
								OFFSET 0.04969 1.88916 -0.14562
							}
						}
					}
				}
				JOINT LeftShoulder
				{
					OFFSET 0 0 0
					CHANNELS 3 Zrotation Yrotation Xrotation
					JOINT LeftArm
					{
						OFFSET 3.73629 1.27211 -0.12847
						CHANNELS 3 Zrotation Yrotation Xrotation
						JOINT LeftForeArm
						{
							OFFSET 5.10995 -0.00000 0.00000
							CHANNELS 3 Zrotation Yrotation Xrotation
							JOINT LeftHand
							{
								OFFSET 3.21207 -0.00000 0.00000
								CHANNELS 3 Zrotation Yrotation Xrotation
								JOINT LeftFingerBase
								{
									OFFSET 0 0 0
									CHANNELS 3 Zrotation Yrotation Xrotation
									JOINT LeftHandIndex1
									{
										OFFSET 0.63349 -0.00000 0.00000
										CHANNELS 3 Zrotation Yrotation Xrotation
										End Site
										{
											OFFSET 0.51074 -0.00000 0.00000
										}
									}
								}
								JOINT LThumb
								{
									OFFSET 0 0 0
									CHANNELS 3 Zrotation Yrotation Xrotation
									End Site
									{
										OFFSET 0.51853 -0.00000 0.51853
									}
								}
							}
						}
					}
				}
				JOINT RightShoulder
				{
					OFFSET 0 0 0
					CHANNELS 3 Zrotation Yrotation Xrotation
					JOINT RightArm
					{
						OFFSET -3.70251 1.29541 -0.35354
						CHANNELS 3 Zrotation Yrotation Xrotation
						JOINT RightForeArm
						{
							OFFSET -5.25109 -0.00000 0.00000
							CHANNELS 3 Zrotation Yrotation Xrotation
							JOINT RightHand
							{
								OFFSET -3.28364 -0.00000 0.00000
								CHANNELS 3 Zrotation Yrotation Xrotation
								JOINT RightFingerBase
								{
									OFFSET 0 0 0
									CHANNELS 3 Zrotation Yrotation Xrotation
									JOINT RightHandIndex1
									{
										OFFSET -0.59974 -0.00000 0.00000
										CHANNELS 3 Zrotation Yrotation Xrotation
										End Site
										{
											OFFSET -0.48353 -0.00000 0.00000
										}
									}
								}
								JOINT RThumb
								{
									OFFSET 0 0 0
									CHANNELS 3 Zrotation Yrotation Xrotation
									End Site
									{
										OFFSET -0.49091 -0.00000 0.49091
									}
								}
							}
						}
					}
				}
			}
		}
	}
}
MOTION
Frames: 6
Frame Time: 0.0909091
0.00 0.00 0.00 0 0 0 0 0 0 -21 0 0 0 0 0 0 0 0 0 0 0 0 0 0 21 0 0 0 0 0 0 0 0 0 0 0 0 0 0 0 0 0 0 0 0 0 0 -16 0 0 21 0 0 11 0 0 0 -8 0 0 0 0 0 0 0 0 0 0 0 0 0 0 0 0 0 0 0 0 8 0 0 0 0 0 0 0 0 0 0 0 0 0 0 0 0 0
0.00 0.00 0.00 -2.0417 -29.1660 7.3792 0.0000 0.0000 0.0000 -12.7224 -3.5591 -17.6329 0.8773 5.9712 16.7009 -0.1093 5.8868 -1.4723 0.1178 -2.2128 -6.0941 0.0000 0.0000 0.0000 20.0959 6.6853 -8.4397 -1.7155 -8.2465 23.4653 -0.8372 -7.5487 -21.6151 -0.0197 -0.9072 2.4935 2.4101 -0.1395 5.0641 3.5933 0.0767 -0.7521 2.3549 0.0184 -3.6224 -9.7261 -4.2186 -18.2642 6.8122 -4.6126 18.0348 3.3306 -2.1151 9.0621 -0.0000 -0.0000 0.0000 -86.2785 -12.1141 56.1258 51.8858 -53.7283 -27.6874 -0.0000 0.0000 -29.9113 13.4811 31.5233 7.1443 -7.1250 0.0000 -0.0000 -21.4820 60.9280 -8.5633 -0.0000 -0.0000 0.0000 87.3943 9.2207 50.1006 -34.9453 44.7731 -14.7748 0.0000 -0.0000 -19.2309 -20.6996 7.1784 -2.7033 7.1250 -0.0000 -0.0000 4.4517 -22.3194 2.4347
0.00 0.00 0.00 -1.4557 -28.5885 8.9147 0.0000 0.0000 0.0000 -13.5584 -4.4770 -23.6732 1.4590 7.6344 21.6089 -0.0562 4.2199 -1.9480 0.0872 -1.9042 -5.2409 0.0000 0.0000 0.0000 18.5359 6.9682 -14.0787 -2.4454 -9.7379 28.1322 -0.9684 -7.1822 -22.5151 -0.0001 -0.0673 0.1850 3.7726 -1.0757 9.2749 5.3769 -0.9161 1.8142 3.5896 -0.4963 -3.2858 -8.2451 -1.4910 -19.9177 4.4406 -0.5341 15.2757 2.7674 -0.2877 8.0359 0.0000 0.0000 0.0000 -71.3690 -13.5072 30.3235 30.6361 -41.4324 -11.8283 -0.0000 0.0000 -18.9726 14.9527 22.4925 5.8336 -7.1250 0.0000 -0.0000 -14.3967 52.6054 -2.7405 0.0000 0.0000 0.0000 79.5083 -4.4167 7.2544 -18.1733 28.3785 -4.6313 0.0000 -0.0000 -28.3345 -25.1442 0.1930 -0.0906 7.1250 -0.0000 -0.0000 1.1180 -29.7656 0.4155
0.00 0.00 0.00 0.8011 -26.2823 10.7651 0.0000 0.0000 0.0000 -17.6086 -6.0111 -27.4468 1.6383 8.0682 22.9215 0.0012 1.2664 -1.9567 0.0115 -0.6928 -1.9038 0.0000 0.0000 0.0000 14.3860 4.8505 -18.0694 -2.6938 -10.1821 29.5686 -1.0574 -7.3661 -23.4089 -0.0191 0.8918 -2.4511 6.1935 -1.5009 11.0616 6.7738 -1.2194 3.7898 3.7621 -0.6591 -2.2039 -8.1146 -0.5514 -19.1787 0.7781 1.2303 10.0132 1.6761 0.3292 6.1016 0.0000 0.0000 0.0000 -66.9186 1.2084 18.2219 22.4043 -33.4310 -6.8073 -0.0000 0.0000 -7.2662 16.2771 20.0507 5.7167 -7.1250 0.0000 -0.0000 -12.1191 50.4036 -1.6349 0.0000 0.0000 0.0000 74.1544 -23.4727 -38.3108 -10.4381 17.4219 -1.6036 0.0000 -0.0000 -20.6693 -29.9226 -7.5625 4.3317 7.1250 -0.0000 -0.0000 -2.6864 -38.6758 -0.4188
0.00 0.00 0.00 3.0783 -3.6598 10.0861 0.0000 0.0000 0.0000 -24.8945 -9.7057 -23.1499 1.3268 7.2947 20.5914 -0.9465 -17.4515 1.9366 0.3395 3.7444 10.3588 0.0000 0.0000 0.0000 13.4236 -3.0846 -8.5190 -1.7404 -8.3031 23.6386 -0.1542 -22.2142 -32.3201 -0.0130 -0.7352 2.0205 8.6991 2.0345 6.2667 7.8248 3.6047 -0.0025 2.9790 1.6946 -3.5148 -12.9313 -7.9968 -16.8713 1.5918 -7.9835 12.5495 1.6444 -4.3308 7.2012 -0.0000 0.0000 0.0000 -83.8889 5.6347 28.8021 23.2340 -34.3437 -7.2699 -0.0000 0.0000 -3.7220 10.6184 9.5624 1.7838 -7.1250 0.0000 -0.0000 -14.1666 39.3177 2.0313 -0.0000 0.0000 0.0000 81.6931 6.1515 -29.6363 -12.0520 19.8826 -2.1199 0.0000 -0.0000 -37.4496 -33.7171 -9.6029 6.3524 7.1250 -0.0000 -0.0000 -6.0233 -41.4021 -0.5367
0.00 0.00 0.00 2.0653 3.0200 10.4221 0.0000 0.0000 0.0000 -24.7500 -10.8755 -23.1350 1.4207 7.5378 21.3187 -1.3968 -20.8295 3.1782 0.6133 5.0124 13.9438 0.0000 0.0000 0.0000 15.3124 -7.9093 -7.6362 -1.3961 -7.4749 21.1303 0.1826 -23.6565 -32.1618 -0.0834 -1.8626 5.1262 8.8729 5.3916 6.1954 5.8743 8.2319 -1.9837 0.3924 3.8687 -5.2038 -14.7645 -11.7267 -15.1164 3.2040 -13.1758 12.7693 1.7825 -6.7694 7.5822 -0.0000 -0.0000 0.0000 -83.8715 6.6461 32.7362 29.6453 -40.5874 -11.1782 -0.0000 0.0000 -7.3814 12.2191 7.4878 1.6165 -7.1250 0.0000 -0.0000 -12.3849 37.3760 2.3678 -0.0000 -0.0000 0.0000 65.8515 51.2254 -15.3341 -26.9038 38.0873 -9.4397 0.0000 -0.0000 -56.3554 -15.9799 -6.7702 1.9335 7.1250 -0.0000 -0.0000 9.1211 -36.8835 1.8399
